<svg width=" 5.00000E+00" height=" 6.00000E+00">
<rect width=" 5.00000E+00" height=" 6.00000E+00" fill="white"/>
<polygon points=" 0.00000E+00, 1.00000E+00  1.00000E+00, 4.00000E+00  2.50000E+00, 4.00000E+00  5.00000E-01, 5.00000E+00  4.00000E+00, 6.00000E+00  1.50000E+00, 1.00000E+00  5.00000E+00, 0.00000E+00 " style="fill:lime;stroke:purple;stroke-width:0.1;fill-opacity=0.5"/> 
<line x1=" 1.50000E+00" y1=" 1.00000E+00" x2=" 1.50000E+00" y2=" 3.00000E+00" style="stroke:rgb(255,0,0);stroke-width:0.1"/>
<line x1=" 1.50000E+00" y1=" 1.00000E+00" x2=" 1.50000E+00" y2="-5.00000E-01" style="stroke:rgb(255,0,0);stroke-width:0.1"/>
<line x1=" 2.50000E+00" y1=" 4.00000E+00" x2=" 2.50000E+00" y2=" 4.85714E+00" style="stroke:rgb(255,0,0);stroke-width:0.1"/>
<line x1=" 2.50000E+00" y1=" 4.00000E+00" x2=" 2.50000E+00" y2=" 4.00000E+00" style="stroke:rgb(255,0,0);stroke-width:0.1"/>
</svg>
