<svg width="        800" height="        600">
<rect width="        800" height="        600" fill="white"/>
<polygon points="-1.00000E+00, 0.00000E+00  0.00000E+00, 3.00000E+00  1.50000E+00, 3.00000E+00 -5.00000E-01, 4.00000E+00  3.00000E+00, 5.00000E+00  5.00000E-01, 0.00000E+00  4.00000E+00,-1.00000E+00 " style="fill:lime;stroke:purple;stroke-width:0.1;fill-opacity=0.5"/> 
<line x1=" 5.00000E-01" y1=" 0.00000E+00" x2=" 5.00000E-01" y2=" 3.00000E+00" style="stroke:rgb(255,0,0);stroke-width:0.1"/>
<line x1=" 5.00000E-01" y1=" 0.00000E+00" x2=" 5.00000E-01" y2="-3.00000E-01" style="stroke:rgb(255,0,0);stroke-width:0.1"/>
<line x1=" 1.50000E+00" y1=" 3.00000E+00" x2=" 1.50000E+00" y2=" 4.57143E+00" style="stroke:rgb(255,0,0);stroke-width:0.1"/>
<line x1=" 1.50000E+00" y1=" 3.00000E+00" x2=" 1.50000E+00" y2=" 2.00000E+00" style="stroke:rgb(255,0,0);stroke-width:0.1"/>
</svg>
