<svg width=" 7.28103E+02" height=" 5.37401E+02">
<polygon points=" 1.39401E+02, 5.71530E+02  3.71736E+02, 4.54352E+02  2.24254E+02, 4.66474E+02  2.24254E+02, 3.66469E+02  1.52533E+02, 3.66469E+02  1.91929E+02, 3.14951E+02  2.93954E+02, 3.90712E+02  2.93954E+02, 2.24037E+02  2.38396E+02, 2.24037E+02  2.38396E+02, 1.64438E+02  5.31340E+02, 2.54342E+02  4.61640E+02, 5.61428E+02  5.37401E+02, 6.29108E+02  3.79817E+02, 5.99814E+02  3.79817E+02, 7.28103E+02 " style="fill:lime;stroke:purple;stroke-width:0.1" /> 
<line x1=" 2.24254E+02" y1=" 3.66469E+02" x2=" 2.24254E+02" y2=" 4.66474E+02" style="stroke:rgb(255,0,0);stroke-width:0.1"/>
<line x1=" 2.24254E+02" y1=" 3.66469E+02" x2=" 2.24254E+02" y2=" 3.38955E+02" style="stroke:rgb(255,0,0);stroke-width:0.1"/>
<line x1=" 2.93954E+02" y1=" 2.24037E+02" x2=" 2.93954E+02" y2=" 3.90712E+02" style="stroke:rgb(255,0,0);stroke-width:0.1"/>
<line x1=" 2.93954E+02" y1=" 2.24037E+02" x2=" 2.93954E+02" y2=" 1.81489E+02" style="stroke:rgb(255,0,0);stroke-width:0.1"/>
<line x1=" 2.93954E+02" y1=" 3.90712E+02" x2=" 2.93954E+02" y2=" 4.60745E+02" style="stroke:rgb(255,0,0);stroke-width:0.1"/>
<line x1=" 2.93954E+02" y1=" 3.90712E+02" x2=" 2.93954E+02" y2=" 1.81489E+02" style="stroke:rgb(255,0,0);stroke-width:0.1"/>
<line x1=" 3.71736E+02" y1=" 4.54352E+02" x2=" 3.71736E+02" y2=" 7.22840E+02" style="stroke:rgb(255,0,0);stroke-width:0.1"/>
<line x1=" 3.71736E+02" y1=" 4.54352E+02" x2=" 3.71736E+02" y2=" 2.05360E+02" style="stroke:rgb(255,0,0);stroke-width:0.1"/>
<line x1=" 4.61640E+02" y1=" 5.61428E+02" x2=" 4.61640E+02" y2=" 6.15024E+02" style="stroke:rgb(255,0,0);stroke-width:0.1"/>
<line x1=" 4.61640E+02" y1=" 5.61428E+02" x2=" 4.61640E+02" y2=" 2.32951E+02" style="stroke:rgb(255,0,0);stroke-width:0.1"/>
</svg>
